<svg width="584" height="584" viewBox="0 0 584 584" fill="none" xmlns="http://www.w3.org/2000/svg">
<circle cx="292" cy="292" r="292" fill="#41115F"/>
<path d="M220 323C220 287.654 248.654 259 284 259H300.5C348.825 259 388 298.175 388 346.5L382 351L388 360.5L385 389.5L388 454L381.5 458.5L380.5 461.5H377L368.5 466.5L363 470L220 454V323Z" fill="#929292"/>
<path d="M195 343.796C195 296.965 232.965 259 279.796 259C326.001 259 363.701 295.992 364.577 342.189L365 364.5L361 406L356 407.5L361 417.25L363 470L355.5 471L352 468.5L348 471L335.5 470L316.5 466L245 458H213L195 454L198 403L197 384L200 382L196 369L195 356.5V343.796Z" fill="#C4C4C4"/>
<g filter="url(#filter0_i_1_297)">
<path d="M226 344.773C226 316.179 249.179 293 277.773 293C305.755 293 328.674 315.235 329.521 343.204L330 359L328 390L333 442L276.5 433H226L229 398L226 363V344.773Z" fill="#B0B0B0"/>
</g>
<g filter="url(#filter1_d_1_297)">
<path d="M256.02 362.174H252.501V371H246V346H256.612C259.81 346 262.31 346.658 264.113 347.975C265.916 349.291 266.817 351.151 266.817 353.555C266.817 355.295 266.434 356.737 265.669 357.882C264.916 359.027 263.73 359.954 262.113 360.663L267.743 370.742V371H260.779L256.02 362.174ZM252.501 357.521H256.612C257.847 357.521 258.773 357.224 259.39 356.628C260.02 356.022 260.335 355.18 260.335 354.104C260.335 353.028 260.02 352.187 259.39 351.58C258.761 350.962 257.835 350.653 256.612 350.653H252.501V357.521Z" fill="#C4C4C4"/>
</g>
<g filter="url(#filter2_d_1_297)">
<path d="M281.463 371H274.981V346H281.463V371Z" fill="#C4C4C4"/>
</g>
<g filter="url(#filter3_d_1_297)">
<path d="M296.276 362.518V371H289.775V346H300.536C302.598 346 304.419 346.355 305.999 347.065C307.592 347.763 308.821 348.764 309.685 350.069C310.562 351.363 311 352.834 311 354.482C311 356.92 310.055 358.872 308.166 360.337C306.29 361.791 303.709 362.518 300.425 362.518H296.276ZM296.276 357.865H300.536C301.795 357.865 302.752 357.573 303.407 356.989C304.073 356.405 304.407 355.581 304.407 354.516C304.407 353.349 304.067 352.416 303.388 351.718C302.709 351.019 301.783 350.665 300.61 350.653H296.276V357.865Z" fill="#C4C4C4"/>
</g>
<path d="M307.087 498.703L362.803 484L295.479 487.095L278.455 484L215 490.965L267.621 494.834L238.215 504.12H285.419L341.909 509.537L307.087 498.703Z" fill="#18052B"/>
<path d="M267.621 494.834L238.215 504.12H267.621V494.834Z" fill="#270547"/>
<path d="M307.087 498.703L362.803 484L295.479 487.095V505.084L307.087 505.667V498.703Z" fill="#270547"/>
<path d="M342 219C342 244.957 330 266 286.5 266C243 266 231 244.957 231 219C231 193.043 255.848 172 286.5 172C317.152 172 342 193.043 342 219Z" fill="black"/>
<path d="M254.428 133.412C249.76 139.309 247 146.603 247 154.5C247 174.106 264.013 190 285 190C305.987 190 323 174.106 323 154.5C323 148.937 321.63 143.673 319.189 138.986L322 109L299.689 121.749C295.17 119.978 290.207 119 285 119C281.46 119 278.033 119.452 274.782 120.298L253 106L254.428 133.412Z" fill="black"/>
<ellipse cx="302" cy="151.5" rx="10" ry="10.5" fill="#F7F2F2"/>
<circle cx="305.5" cy="156.5" r="3.5" fill="black"/>
<ellipse cx="272.5" cy="151.5" rx="9.5" ry="10.5" fill="#F7F2F2"/>
<ellipse cx="276" cy="156.5" rx="3" ry="3.5" fill="black"/>
<path d="M285.5 261C285.5 296.241 333.5 293 333.5 324C333.5 355 284.543 357 263.5 355" stroke="black" stroke-width="10" stroke-linecap="round"/>
<defs>
<filter id="filter0_i_1_297" x="226" y="293" width="107" height="149" filterUnits="userSpaceOnUse" color-interpolation-filters="sRGB">
<feFlood flood-opacity="0" result="BackgroundImageFix"/>
<feBlend mode="normal" in="SourceGraphic" in2="BackgroundImageFix" result="shape"/>
<feColorMatrix in="SourceAlpha" type="matrix" values="0 0 0 0 0 0 0 0 0 0 0 0 0 0 0 0 0 0 127 0" result="hardAlpha"/>
<feOffset dx="6"/>
<feComposite in2="hardAlpha" operator="arithmetic" k2="-1" k3="1"/>
<feColorMatrix type="matrix" values="0 0 0 0 0 0 0 0 0 0 0 0 0 0 0 0 0 0 0.25 0"/>
<feBlend mode="normal" in2="shape" result="effect1_innerShadow_1_297"/>
</filter>
<filter id="filter1_d_1_297" x="246" y="346" width="25.7432" height="25" filterUnits="userSpaceOnUse" color-interpolation-filters="sRGB">
<feFlood flood-opacity="0" result="BackgroundImageFix"/>
<feColorMatrix in="SourceAlpha" type="matrix" values="0 0 0 0 0 0 0 0 0 0 0 0 0 0 0 0 0 0 127 0" result="hardAlpha"/>
<feOffset dx="4"/>
<feColorMatrix type="matrix" values="0 0 0 0 0 0 0 0 0 0 0 0 0 0 0 0 0 0 0.25 0"/>
<feBlend mode="normal" in2="BackgroundImageFix" result="effect1_dropShadow_1_297"/>
<feBlend mode="normal" in="SourceGraphic" in2="effect1_dropShadow_1_297" result="shape"/>
</filter>
<filter id="filter2_d_1_297" x="274.981" y="346" width="10.4822" height="25" filterUnits="userSpaceOnUse" color-interpolation-filters="sRGB">
<feFlood flood-opacity="0" result="BackgroundImageFix"/>
<feColorMatrix in="SourceAlpha" type="matrix" values="0 0 0 0 0 0 0 0 0 0 0 0 0 0 0 0 0 0 127 0" result="hardAlpha"/>
<feOffset dx="4"/>
<feColorMatrix type="matrix" values="0 0 0 0 0 0 0 0 0 0 0 0 0 0 0 0 0 0 0.25 0"/>
<feBlend mode="normal" in2="BackgroundImageFix" result="effect1_dropShadow_1_297"/>
<feBlend mode="normal" in="SourceGraphic" in2="effect1_dropShadow_1_297" result="shape"/>
</filter>
<filter id="filter3_d_1_297" x="289.775" y="346" width="25.2246" height="25" filterUnits="userSpaceOnUse" color-interpolation-filters="sRGB">
<feFlood flood-opacity="0" result="BackgroundImageFix"/>
<feColorMatrix in="SourceAlpha" type="matrix" values="0 0 0 0 0 0 0 0 0 0 0 0 0 0 0 0 0 0 127 0" result="hardAlpha"/>
<feOffset dx="4"/>
<feColorMatrix type="matrix" values="0 0 0 0 0 0 0 0 0 0 0 0 0 0 0 0 0 0 0.25 0"/>
<feBlend mode="normal" in2="BackgroundImageFix" result="effect1_dropShadow_1_297"/>
<feBlend mode="normal" in="SourceGraphic" in2="effect1_dropShadow_1_297" result="shape"/>
</filter>
</defs>
</svg>
